<svg xmlns="http://www.w3.org/2000/svg" width="120" height="32" viewBox="0 0 120 32"><g transform="translate(-32 -207)"><path d="M11.02.016H8.991l-5.683-8.6v8.6H1.36V-11.343H3.844L9.072-3.285v-8.059H11.02ZM14.9-4.743h3.88a1.8,1.8,0,0,0-.528-1.234,1.919,1.919,0,0,0-1.421-.5,1.842,1.842,0,0,0-1.364.521A1.856,1.856,0,0,0,14.9-4.743Zm4.091,2.035,1.591.5a3.482,3.482,0,0,1-1.275,1.77,3.732,3.732,0,0,1-2.3.7A3.97,3.97,0,0,1,14.146-.882a4.038,4.038,0,0,1-1.177-3.044,4.009,4.009,0,0,1,1.145-2.948,3.683,3.683,0,0,1,2.7-1.154,3.693,3.693,0,0,1,2.841,1.1,4.162,4.162,0,0,1,1.023,2.956,1.947,1.947,0,0,1-.049.593h-5.78a2.005,2.005,0,0,0,.658,1.458,2.137,2.137,0,0,0,1.5.577A1.886,1.886,0,0,0,18.992-2.708Zm5.39.641a2.132,2.132,0,0,0,1.575.657,2.106,2.106,0,0,0,1.567-.657,2.5,2.5,0,0,0,.641-1.826,2.453,2.453,0,0,0-.641-1.8,2.119,2.119,0,0,0-1.567-.649,2.119,2.119,0,0,0-1.567.649,2.453,2.453,0,0,0-.641,1.8A2.558,2.558,0,0,0,24.382-2.067Zm1.575-5.96A3.977,3.977,0,0,1,28.9-6.857a4.032,4.032,0,0,1,1.161,2.964A4.059,4.059,0,0,1,28.9-.922,3.963,3.963,0,0,1,25.957.256,3.943,3.943,0,0,1,23.027-.922a4.059,4.059,0,0,1-1.161-2.972,4.032,4.032,0,0,1,1.161-2.964A3.957,3.957,0,0,1,25.957-8.027ZM44.71.016H42.778V-8.347L39.19.016H37.5L33.945-8.315V.016h-1.9V-11.343h2.6l3.734,8.668,3.686-8.668H44.71Zm3.88-4.758h3.88a1.8,1.8,0,0,0-.528-1.234,1.919,1.919,0,0,0-1.421-.5,1.842,1.842,0,0,0-1.364.521A1.856,1.856,0,0,0,48.59-4.743Zm4.091,2.035,1.591.5A3.482,3.482,0,0,1,53-.441a3.732,3.732,0,0,1-2.3.7A3.97,3.97,0,0,1,47.835-.882a4.038,4.038,0,0,1-1.177-3.044A4.009,4.009,0,0,1,47.8-6.874a3.683,3.683,0,0,1,2.7-1.154,3.693,3.693,0,0,1,2.841,1.1A4.162,4.162,0,0,1,54.37-3.974a1.947,1.947,0,0,1-.049.593h-5.78A2.005,2.005,0,0,0,49.2-1.923a2.137,2.137,0,0,0,1.5.577A1.886,1.886,0,0,0,52.682-2.708Zm4.757-1.2a2.671,2.671,0,0,0,.584,1.8,1.933,1.933,0,0,0,1.542.681,1.889,1.889,0,0,0,1.51-.689,2.7,2.7,0,0,0,.584-1.81,2.6,2.6,0,0,0-.568-1.762,1.9,1.9,0,0,0-1.51-.657,1.985,1.985,0,0,0-1.542.665A2.54,2.54,0,0,0,57.439-3.91Zm6.04-7.674V-1.41A11.412,11.412,0,0,0,63.56.016h-1.8a5.7,5.7,0,0,1-.081-1.009,2.211,2.211,0,0,1-.909.865,2.9,2.9,0,0,1-1.413.336,3.523,3.523,0,0,1-2.744-1.17A4.234,4.234,0,0,1,55.555-3.91a4.187,4.187,0,0,1,1.063-2.9A3.472,3.472,0,0,1,59.322-8a2.993,2.993,0,0,1,1.518.336,1.977,1.977,0,0,1,.8.785v-4.71ZM67.813.016H65.946v-7.8h1.867Zm-1.8-9.693a1.15,1.15,0,0,1-.357-.849,1.176,1.176,0,0,1,.357-.857,1.168,1.168,0,0,1,.861-.36,1.2,1.2,0,0,1,.877.352,1.168,1.168,0,0,1,.357.865,1.15,1.15,0,0,1-.357.849,1.2,1.2,0,0,1-.877.352A1.181,1.181,0,0,1,66.011-9.677Zm7.68,3.364a2.074,2.074,0,0,0-1.542.649,2.426,2.426,0,0,0-.633,1.77A2.458,2.458,0,0,0,72.156-2.1a2.106,2.106,0,0,0,1.567.657,1.917,1.917,0,0,0,1.323-.441,2.125,2.125,0,0,0,.658-1l1.656.593A3.7,3.7,0,0,1,76.1-.5a3.668,3.668,0,0,1-2.379.753A3.944,3.944,0,0,1,70.809-.93a4.037,4.037,0,0,1-1.177-2.964,4.032,4.032,0,0,1,1.161-2.964,3.9,3.9,0,0,1,2.882-1.17,3.72,3.72,0,0,1,2.411.753,3.4,3.4,0,0,1,1.21,1.81l-1.689.609a2.114,2.114,0,0,0-.625-1.033A1.838,1.838,0,0,0,73.691-6.313Z" transform="translate(74.64 228.744)" fill="#3f63f2"/><g transform="translate(0 10)"><rect width="32" height="32" rx="6" transform="translate(32 197)" fill="#3f63f2"/><g transform="translate(39 204)"><path d="M6158.545,5977.135v4.146a1.75,1.75,0,0,1-1.883,1.271c-1.635,0-1.79-1.221-1.79-2.033a1.688,1.688,0,0,1,1.673-1.591h3.979c1.443,0,1.552-1.4,1.552-1.793v-3.785a1.673,1.673,0,0,1,1.759-1.653,1.646,1.646,0,0,1,1.735,1.653v3.785a1.864,1.864,0,0,0,2.029,1.793,1.578,1.578,0,0,0,1.677-1.793c0-1.433-.858-1.706-1.1-1.706h-7.649C6159.426,5975.429,6158.545,5975.692,6158.545,5977.135Z" transform="translate(-6154.872 -5971.696)" fill="none" stroke="#fff" stroke-width="1"/><path d="M6165.6,5977.113v-4.146a1.75,1.75,0,0,1,1.882-1.271c1.635,0,1.791,1.221,1.791,2.033a1.688,1.688,0,0,1-1.673,1.591h-3.979c-1.442,0-1.551,1.4-1.551,1.793v3.785a1.674,1.674,0,0,1-1.76,1.653,1.646,1.646,0,0,1-1.735-1.653v-3.785a1.863,1.863,0,0,0-2.029-1.793,1.578,1.578,0,0,0-1.676,1.793c0,1.433.859,1.706,1.1,1.706h7.649C6164.722,5978.819,6165.6,5978.556,6165.6,5977.113Z" transform="translate(-6151.276 -5964.552)" fill="none" stroke="#fff" stroke-width="1"/></g></g></g></svg>